<svg width="635" height="414" viewBox="0 0 635 414" fill="none" xmlns="http://www.w3.org/2000/svg">
<path opacity="0.27" d="M125.259 11.6411H122.274C122.316 11.3694 122.337 11.0977 122.337 10.8051V6.22808C122.337 2.80055 119.289 0 115.574 0H30.4955C26.7801 0 23.7327 2.80055 23.7327 6.22808V10.8051C23.7327 11.0977 23.7535 11.3694 23.7953 11.6411H7.84827C3.52755 11.6411 0 14.9014 0 18.8723V21.443C0 25.4348 3.52755 28.6951 7.84827 28.6951H24.9433C24.9433 28.6951 39.3875 28.6951 55.5223 28.6951C55.4597 29.0922 55.418 29.5102 55.418 29.9282C55.418 33.9618 58.7159 37.2431 62.7235 37.2431H105.012C109.041 37.2431 112.318 33.9409 112.318 29.9282C112.318 29.5102 112.276 29.1131 112.214 28.6951H125.238C129.559 28.6951 133.087 25.4348 133.087 21.443V18.8723C133.107 14.9014 129.58 11.6411 125.259 11.6411Z" fill="url(#paint0_linear_0_451)"/>
<path d="M240.478 414H271.412C274.042 414 276.192 411.847 276.192 409.214V110.998C276.192 108.364 274.042 106.212 271.412 106.212H240.478C237.848 106.212 235.698 108.364 235.698 110.998V409.235C235.719 411.847 237.869 414 240.478 414Z" fill="#F5F5F5"/>
<path d="M309.84 414H75.1638C70.2169 414 66.1675 409.945 66.1675 404.992V247.765C66.1675 242.811 70.2169 238.757 75.1638 238.757H309.86C314.807 238.757 318.857 242.811 318.857 247.765V404.992C318.857 409.945 314.807 414 309.84 414Z" fill="url(#paint1_linear_0_451)"/>
<path d="M235.719 414H179.926C176.315 414 173.372 411.032 173.372 407.438V78.8542C173.372 75.2385 176.336 72.2917 179.926 72.2917H235.719C239.33 72.2917 242.274 75.2594 242.274 78.8542V407.438C242.274 411.053 239.33 414 235.719 414Z" fill="url(#paint2_linear_0_451)"/>
<path d="M191.427 357.049H189.214C188.317 357.049 187.586 356.317 187.586 355.418V93.6093C187.586 92.7106 188.317 91.9791 189.214 91.9791H191.427C192.324 91.9791 193.055 92.7106 193.055 93.6093V355.418C193.055 356.317 192.324 357.049 191.427 357.049Z" fill="white"/>
<path d="M208.918 357.049H206.706C205.808 357.049 205.078 356.317 205.078 355.418V93.6093C205.078 92.7106 205.808 91.9791 206.706 91.9791H208.918C209.816 91.9791 210.546 92.7106 210.546 93.6093V355.418C210.546 356.317 209.816 357.049 208.918 357.049Z" fill="white"/>
<path d="M554.889 414H320.193C315.246 414 311.196 409.945 311.196 404.992V247.765C311.196 242.811 315.246 238.757 320.193 238.757H554.889C559.836 238.757 563.885 242.811 563.885 247.765V404.992C563.885 409.945 559.836 414 554.889 414Z" fill="url(#paint3_linear_0_451)"/>
<path d="M226.431 357.049H224.218C223.321 357.049 222.59 356.317 222.59 355.418V93.6093C222.59 92.7106 223.321 91.9791 224.218 91.9791H226.431C227.328 91.9791 228.059 92.7106 228.059 93.6093V355.418C228.059 356.317 227.328 357.049 226.431 357.049Z" fill="white"/>
<path d="M377.823 414H409.759C412.118 414 414.038 412.077 414.038 409.716V171.669C414.038 169.308 412.118 167.385 409.759 167.385H377.823C375.464 167.385 373.544 169.308 373.544 171.669V409.736C373.544 412.077 375.464 414 377.823 414Z" fill="url(#paint4_linear_0_451)"/>
<path d="M374.233 414H317.062C313.826 414 311.196 411.346 311.196 408.127V146.067C311.196 142.828 313.847 140.194 317.062 140.194H374.233C377.468 140.194 380.098 142.849 380.098 146.067V408.127C380.098 411.367 377.468 414 374.233 414Z" fill="url(#paint5_linear_0_451)"/>
<path d="M463.089 414H502.769C505.691 414 508.092 411.597 508.092 408.671V111.562C508.092 108.636 505.691 106.233 502.769 106.233H463.089C460.167 106.233 457.767 108.636 457.767 111.562V408.671C457.767 411.597 460.167 414 463.089 414Z" fill="url(#paint6_linear_0_451)"/>
<path d="M469.351 135.806H480.101C480.456 135.806 480.748 135.513 480.748 135.158V117.811C480.748 117.456 480.456 117.163 480.101 117.163H469.351C468.997 117.163 468.704 117.456 468.704 117.811V135.158C468.704 135.513 468.997 135.806 469.351 135.806Z" fill="white"/>
<path d="M240.478 414H271.412C274.042 414 276.192 411.847 276.192 409.214V110.998C276.192 108.364 274.042 106.212 271.412 106.212H240.478C237.848 106.212 235.698 108.364 235.698 110.998V409.235C235.719 411.847 237.869 414 240.478 414Z" fill="url(#paint7_linear_0_451)"/>
<path d="M191.427 357.049H189.214C188.317 357.049 187.586 356.317 187.586 355.418V93.6093C187.586 92.7106 188.317 91.9791 189.214 91.9791H191.427C192.324 91.9791 193.055 92.7106 193.055 93.6093V355.418C193.055 356.317 192.324 357.049 191.427 357.049Z" fill="white"/>
<path d="M208.918 357.049H206.706C205.808 357.049 205.078 356.317 205.078 355.418V93.6093C205.078 92.7106 205.808 91.9791 206.706 91.9791H208.918C209.816 91.9791 210.546 92.7106 210.546 93.6093V355.418C210.546 356.317 209.816 357.049 208.918 357.049Z" fill="white"/>
<path d="M226.431 357.049H224.218C223.321 357.049 222.59 356.317 222.59 355.418V93.6093C222.59 92.7106 223.321 91.9791 224.218 91.9791H226.431C227.328 91.9791 228.059 92.7106 228.059 93.6093V355.418C228.059 356.317 227.328 357.049 226.431 357.049Z" fill="white"/>
<path d="M594.506 414H538.713C535.102 414 532.158 411.032 532.158 407.438V78.8542C532.158 75.2385 535.122 72.2917 538.713 72.2917H594.506C598.117 72.2917 601.06 75.2594 601.06 78.8542V407.438C601.081 411.053 598.117 414 594.506 414Z" fill="url(#paint8_linear_0_451)"/>
<path d="M599.286 414H630.22C632.85 414 635 411.847 635 409.214V110.998C635 108.364 632.85 106.212 630.22 106.212H599.286C596.656 106.212 594.506 108.364 594.506 110.998V409.235C594.506 411.847 596.656 414 599.286 414Z" fill="url(#paint9_linear_0_451)"/>
<path d="M550.214 357.049H548.001C547.104 357.049 546.373 356.317 546.373 355.418V93.6093C546.373 92.7106 547.104 91.9791 548.001 91.9791H550.214C551.111 91.9791 551.842 92.7106 551.842 93.6093V355.418C551.842 356.317 551.111 357.049 550.214 357.049Z" fill="white"/>
<path d="M567.726 357.049H565.514C564.616 357.049 563.885 356.317 563.885 355.418V93.6093C563.885 92.7106 564.616 91.9791 565.514 91.9791H567.726C568.624 91.9791 569.354 92.7106 569.354 93.6093V355.418C569.354 356.317 568.624 357.049 567.726 357.049Z" fill="white"/>
<path d="M585.218 357.049H583.005C582.108 357.049 581.377 356.317 581.377 355.418V93.6093C581.377 92.7106 582.108 91.9791 583.005 91.9791H585.218C586.115 91.9791 586.846 92.7106 586.846 93.6093V355.418C586.846 356.317 586.115 357.049 585.218 357.049Z" fill="white"/>
<path d="M487.949 135.806H498.699C499.054 135.806 499.346 135.513 499.346 135.158V117.811C499.346 117.456 499.054 117.163 498.699 117.163H487.949C487.594 117.163 487.302 117.456 487.302 117.811V135.158C487.302 135.513 487.594 135.806 487.949 135.806Z" fill="white"/>
<path d="M469.351 158.795H480.101C480.456 158.795 480.748 158.502 480.748 158.147V140.801C480.748 140.445 480.456 140.153 480.101 140.153H469.351C468.997 140.153 468.704 140.445 468.704 140.801V158.147C468.704 158.502 468.997 158.795 469.351 158.795Z" fill="white"/>
<path d="M487.949 158.795H498.699C499.054 158.795 499.346 158.502 499.346 158.147V140.801C499.346 140.445 499.054 140.153 498.699 140.153H487.949C487.594 140.153 487.302 140.445 487.302 140.801V158.147C487.302 158.502 487.594 158.795 487.949 158.795Z" fill="white"/>
<path d="M469.351 182.892H480.101C480.456 182.892 480.748 182.6 480.748 182.244V164.898C480.748 164.542 480.456 164.25 480.101 164.25H469.351C468.997 164.25 468.704 164.542 468.704 164.898V182.244C468.704 182.6 468.997 182.892 469.351 182.892Z" fill="white"/>
<path d="M487.949 182.892H498.699C499.054 182.892 499.346 182.6 499.346 182.244V164.898C499.346 164.542 499.054 164.25 498.699 164.25H487.949C487.594 164.25 487.302 164.542 487.302 164.898V182.244C487.302 182.6 487.594 182.892 487.949 182.892Z" fill="white"/>
<path d="M469.351 205.903H480.101C480.456 205.903 480.748 205.61 480.748 205.255V187.908C480.748 187.553 480.456 187.26 480.101 187.26H469.351C468.997 187.26 468.704 187.553 468.704 187.908V205.255C468.704 205.61 468.997 205.903 469.351 205.903Z" fill="white"/>
<path d="M487.949 205.903H498.699C499.054 205.903 499.346 205.61 499.346 205.255V187.908C499.346 187.553 499.054 187.26 498.699 187.26H487.949C487.594 187.26 487.302 187.553 487.302 187.908V205.255C487.302 205.61 487.594 205.903 487.949 205.903Z" fill="white"/>
<path d="M469.351 227.806H480.101C480.456 227.806 480.748 227.513 480.748 227.158V209.811C480.748 209.456 480.456 209.163 480.101 209.163H469.351C468.997 209.163 468.704 209.456 468.704 209.811V227.158C468.704 227.513 468.997 227.806 469.351 227.806Z" fill="white"/>
<path d="M487.949 227.806H498.699C499.054 227.806 499.346 227.513 499.346 227.158V209.811C499.346 209.456 499.054 209.163 498.699 209.163H487.949C487.594 209.163 487.302 209.456 487.302 209.811V227.158C487.302 227.513 487.594 227.806 487.949 227.806Z" fill="white"/>
<path d="M469.351 250.816H480.101C480.456 250.816 480.748 250.523 480.748 250.168V232.821C480.748 232.466 480.456 232.174 480.101 232.174H469.351C468.997 232.174 468.704 232.466 468.704 232.821V250.168C468.704 250.523 468.997 250.816 469.351 250.816Z" fill="white"/>
<path d="M487.949 250.816H498.699C499.054 250.816 499.346 250.523 499.346 250.168V232.821C499.346 232.466 499.054 232.174 498.699 232.174H487.949C487.594 232.174 487.302 232.466 487.302 232.821V250.168C487.302 250.523 487.594 250.816 487.949 250.816Z" fill="white"/>
<path d="M469.351 274.892H480.101C480.456 274.892 480.748 274.6 480.748 274.244V256.898C480.748 256.542 480.456 256.25 480.101 256.25H469.351C468.997 256.25 468.704 256.542 468.704 256.898V274.244C468.704 274.621 468.997 274.892 469.351 274.892Z" fill="white"/>
<path d="M487.949 274.892H498.699C499.054 274.892 499.346 274.6 499.346 274.244V256.898C499.346 256.542 499.054 256.25 498.699 256.25H487.949C487.594 256.25 487.302 256.542 487.302 256.898V274.244C487.302 274.621 487.594 274.892 487.949 274.892Z" fill="white"/>
<path d="M469.351 297.903H480.101C480.456 297.903 480.748 297.61 480.748 297.255V279.908C480.748 279.553 480.456 279.26 480.101 279.26H469.351C468.997 279.26 468.704 279.553 468.704 279.908V297.255C468.704 297.61 468.997 297.903 469.351 297.903Z" fill="white"/>
<path d="M487.949 297.903H498.699C499.054 297.903 499.346 297.61 499.346 297.255V279.908C499.346 279.553 499.054 279.26 498.699 279.26H487.949C487.594 279.26 487.302 279.553 487.302 279.908V297.255C487.302 297.61 487.594 297.903 487.949 297.903Z" fill="white"/>
<path d="M30.4538 414H61.3876C64.0176 414 66.1675 411.847 66.1675 409.214V110.998C66.1675 108.364 64.0176 106.212 61.3876 106.212H30.4538C27.8238 106.212 25.6738 108.364 25.6738 110.998V409.235C25.6738 411.847 27.8238 414 30.4538 414Z" fill="url(#paint10_linear_0_451)"/>
<defs>
<linearGradient id="paint0_linear_0_451" x1="0" y1="37.2291" x2="133.114" y2="37.2291" gradientUnits="userSpaceOnUse">
<stop stop-color="#F2F2F3"/>
<stop offset="1" stop-color="#DCDEDF"/>
</linearGradient>
<linearGradient id="paint1_linear_0_451" x1="87.337" y1="239.459" x2="87.337" y2="385.325" gradientUnits="userSpaceOnUse">
<stop stop-color="#F5F5F5"/>
<stop offset="1" stop-color="white"/>
</linearGradient>
<linearGradient id="paint2_linear_0_451" x1="232.43" y1="411.814" x2="232.43" y2="167.679" gradientUnits="userSpaceOnUse">
<stop stop-color="white"/>
<stop offset="1" stop-color="#E6E6E6"/>
</linearGradient>
<linearGradient id="paint3_linear_0_451" x1="332.371" y1="239.459" x2="332.371" y2="385.325" gradientUnits="userSpaceOnUse">
<stop stop-color="#F5F5F5"/>
<stop offset="1" stop-color="white"/>
</linearGradient>
<linearGradient id="paint4_linear_0_451" x1="374.511" y1="166.468" x2="374.511" y2="401.171" gradientUnits="userSpaceOnUse">
<stop stop-color="#F5F5F5"/>
<stop offset="1" stop-color="white"/>
</linearGradient>
<linearGradient id="paint5_linear_0_451" x1="316.971" y1="141.277" x2="316.971" y2="369.192" gradientUnits="userSpaceOnUse">
<stop stop-color="#F5F5F5"/>
<stop offset="1" stop-color="white"/>
</linearGradient>
<linearGradient id="paint6_linear_0_451" x1="461.597" y1="106.227" x2="461.597" y2="367.185" gradientUnits="userSpaceOnUse">
<stop stop-color="#F5F5F5"/>
<stop offset="1" stop-color="white"/>
</linearGradient>
<linearGradient id="paint7_linear_0_451" x1="242.743" y1="108.418" x2="242.743" y2="309.155" gradientUnits="userSpaceOnUse">
<stop stop-color="#F5F5F5"/>
<stop offset="1" stop-color="white"/>
</linearGradient>
<linearGradient id="paint8_linear_0_451" x1="590.395" y1="314.333" x2="590.395" y2="78.4783" gradientUnits="userSpaceOnUse">
<stop stop-color="white"/>
<stop offset="1" stop-color="#E6E6E6"/>
</linearGradient>
<linearGradient id="paint9_linear_0_451" x1="605.382" y1="106.227" x2="605.382" y2="248.615" gradientUnits="userSpaceOnUse">
<stop stop-color="#F5F5F5"/>
<stop offset="1" stop-color="white"/>
</linearGradient>
<linearGradient id="paint10_linear_0_451" x1="36.5523" y1="106.227" x2="36.5523" y2="248.615" gradientUnits="userSpaceOnUse">
<stop stop-color="#F5F5F5"/>
<stop offset="1" stop-color="white"/>
</linearGradient>
</defs>
</svg>
