<svg width="198" height="65" viewBox="0 0 198 65" fill="none" xmlns="http://www.w3.org/2000/svg">
<path d="M7.0997 18.5714C7.0997 17.7151 6.42016 17.0238 5.57834 17.0238H5.08643L5.24364 1.5631C5.25378 0.706746 4.57931 0.0103175 3.73748 0C3.73241 0 3.72734 0 3.72227 0C2.89059 0 2.21105 0.680952 2.20091 1.53214L2.0437 17.0238H1.52136C0.679543 17.0238 0 17.7151 0 18.5714C0 19.4278 0.679543 20.119 1.52136 20.119H3.53464C3.53971 20.119 3.54478 20.119 3.54985 20.119H5.57834C6.42016 20.119 7.0997 19.4278 7.0997 18.5714Z" fill="#3576F3"/>
<path d="M23.3834 41.6774C23.3884 41.6774 23.3935 41.6722 23.3986 41.6722C23.4189 41.6619 23.4341 41.6516 23.4544 41.6464C23.5203 41.6155 23.5811 41.5845 23.6369 41.5433C23.6623 41.5278 23.6826 41.5123 23.7029 41.4968C23.7586 41.4556 23.8094 41.4143 23.8601 41.3627C23.8753 41.3472 23.8905 41.3369 23.9057 41.3214C23.9666 41.2595 24.0223 41.1873 24.0731 41.1151C24.0832 41.0996 24.0933 41.079 24.1035 41.0635C24.139 41.0016 24.1745 40.9448 24.1998 40.8778C24.21 40.852 24.2201 40.8262 24.2303 40.8004C24.2556 40.7333 24.2759 40.6611 24.2962 40.5889C24.3013 40.5734 24.3063 40.5528 24.3114 40.5373C24.3266 40.4599 24.3368 40.3774 24.3418 40.3L24.8489 27.3206C24.8743 26.7119 24.5447 26.1496 24.0122 25.8762C23.4797 25.6028 22.8407 25.675 22.3742 26.0516C20.4776 27.6095 18.1144 28.4659 15.7208 28.4659C12.3078 28.4659 9.06226 26.7429 7.03377 23.8591C6.54694 23.1627 5.59355 23.0028 4.90894 23.5032C4.22432 23.9984 4.06711 24.9683 4.55902 25.6647C5.1625 26.5262 5.85725 27.3 6.61793 27.9913L7.0997 40.3C7.12506 40.9087 7.49525 41.4504 8.05309 41.6774L9.68095 42.3377L10.5786 61.9048H8.11394C7.27212 61.9048 6.59258 62.596 6.59258 63.4524C6.59258 64.3087 7.27212 65 8.11394 65H196.479C197.32 65 198 64.3087 198 63.4524C198 62.596 197.32 61.9048 196.479 61.9048H20.863L21.7555 42.3377L23.3834 41.6774Z" fill="#3576F3"/>
<path d="M33.47 11.4369H25.3561C24.5142 11.4369 23.8347 12.1282 23.8347 12.9845V17.4675C23.8347 20.6865 25.995 23.4258 29.0834 24.1222C29.1899 24.148 29.3015 24.1583 29.413 24.1583C29.5246 24.1583 29.6362 24.148 29.7427 24.1222C32.831 23.4258 34.9914 20.6865 34.9914 17.4675V12.9845C34.9914 12.1282 34.3118 11.4369 33.47 11.4369Z" fill="#3576F3"/>
<ellipse cx="15.7208" cy="20.6349" rx="4.05697" ry="4.12698" fill="#3576F3"/>
<path fill-rule="evenodd" clip-rule="evenodd" d="M42.0571 50.1325C43.3411 49.4212 44.0867 48.2077 44.0867 46.5759C44.0867 43.9398 42.1813 42.3498 38.9505 42.3498H31.5776V58.25H38.9919C42.3884 58.25 44.3766 56.6181 44.3766 53.8983C44.3766 52.1409 43.5482 50.8438 42.0571 50.1325ZM38.3706 45.2369C39.8618 45.2369 40.6073 45.8227 40.6073 46.9943C40.6073 48.1659 39.8618 48.7517 38.3706 48.7517H34.9741V45.2369H38.3706ZM34.9741 55.3628H38.412C40.0274 55.3628 40.8559 54.7352 40.8559 53.438C40.8559 52.1409 40.0274 51.5133 38.412 51.5133H34.9741V55.3628Z" fill="#3576F3"/>
<path fill-rule="evenodd" clip-rule="evenodd" d="M57.1343 54.6515C57.1343 55.1118 57.3828 55.3628 57.8384 55.3628H58.3355V58.2499C58.087 58.2918 57.7556 58.3336 57.1343 58.3336C55.6017 58.3336 54.7733 57.7478 54.5248 56.4507C53.6549 57.706 52.0395 58.4592 50.217 58.4592C47.7732 58.4592 46.1578 56.9947 46.1578 54.8189C46.1578 51.5551 49.1815 50.9693 51.501 50.6764C52.9094 50.5091 54.0277 50.2999 54.0277 49.5467C54.0277 48.7517 53.1993 48.2077 51.791 48.2077C50.5069 48.2077 49.3472 48.7098 48.3945 49.6722L46.4063 47.6219C47.8974 46.1993 49.7614 45.4879 51.9981 45.4879C55.2289 45.4879 57.1343 47.078 57.1343 49.7141V54.6515ZM49.3472 54.4841C49.3472 55.321 49.9271 55.8231 50.9626 55.8231C52.6194 55.8231 53.9449 54.7352 53.9449 53.3544V52.2665C53.4569 52.554 52.7693 52.6802 51.8821 52.8431C51.8656 52.8462 51.849 52.8492 51.8324 52.8523C50.5484 53.0615 49.3472 53.2707 49.3472 54.4841Z" fill="#3576F3"/>
<path fill-rule="evenodd" clip-rule="evenodd" d="M63.9687 47.4546C64.9214 46.1993 66.2883 45.4879 67.9866 45.4879C71.2174 45.4879 73.2884 48.0403 73.2884 51.9736C73.2884 55.8649 71.1346 58.4592 67.9866 58.4592C66.3712 58.4592 65.0871 57.8315 64.1344 56.7855V62.4342H60.8208V45.6972H63.8031L63.9687 47.4546ZM64.0102 51.9736C64.0102 54.2749 65.0871 55.6975 66.951 55.6975C68.815 55.6975 69.9333 54.2749 69.9333 51.9736C69.9333 49.6722 68.815 48.2496 66.951 48.2496C65.0871 48.2496 64.0102 49.6722 64.0102 51.9736Z" fill="#3576F3"/>
<path d="M90.0639 45.6972V55.2373H86.2532V45.6972H82.9395V55.2373H79.1288V45.6972H75.8151V58.2499H93.3776V45.6972H90.0639Z" fill="#3576F3"/>
<path fill-rule="evenodd" clip-rule="evenodd" d="M106.839 54.6515C106.839 55.1118 107.088 55.3628 107.544 55.3628H108.041V58.2499C107.792 58.2918 107.461 58.3336 106.839 58.3336C105.307 58.3336 104.478 57.7478 104.23 56.4507C103.36 57.706 101.745 58.4592 99.9221 58.4592C97.4783 58.4592 95.8629 56.9947 95.8629 54.8189C95.8629 51.5551 98.8866 50.9693 101.206 50.6764C102.614 50.5091 103.733 50.2999 103.733 49.5467C103.733 48.7517 102.904 48.2077 101.496 48.2077C100.212 48.2077 99.0523 48.7098 98.0996 49.6722L96.1114 47.6219C97.6026 46.1993 99.4665 45.4879 101.703 45.4879C104.934 45.4879 106.839 47.078 106.839 49.7141V54.6515ZM99.0523 54.4841C99.0523 55.321 99.6322 55.8231 100.668 55.8231C102.325 55.8231 103.65 54.7352 103.65 53.3544V52.2665C103.162 52.554 102.474 52.6802 101.587 52.8431C101.571 52.8462 101.554 52.8492 101.538 52.8523C100.253 53.0615 99.0523 53.2707 99.0523 54.4841Z" fill="#3576F3"/>
<path fill-rule="evenodd" clip-rule="evenodd" d="M119.183 51.8062C120.343 51.3041 121.047 50.3835 121.047 49.0027C121.047 46.7432 119.266 45.6972 116.283 45.6972H110.526V58.2499H116.739C119.638 58.2499 121.378 57.0365 121.378 54.777C121.378 53.3125 120.591 52.2665 119.183 51.8062ZM113.632 48.1659H116.325C117.319 48.1659 117.857 48.6261 117.857 49.4212C117.857 50.2999 117.36 50.6764 116.283 50.6764H113.632V48.1659ZM113.632 55.7394H116.408C117.485 55.7394 118.064 55.2373 118.064 54.4004C118.064 53.5217 117.443 52.9778 116.325 52.9778H113.632V55.7394Z" fill="#3576F3"/>
<path d="M129.372 58.4592C132.23 58.4592 134.426 57.0784 135.13 54.6933L131.982 53.7309C131.526 54.9862 130.615 55.6975 129.331 55.6975C127.508 55.6975 126.349 54.2749 126.349 51.9736C126.349 49.6722 127.508 48.2496 129.331 48.2496C130.615 48.2496 131.526 48.9609 131.982 50.2162L135.13 49.2538C134.426 46.8688 132.23 45.4879 129.372 45.4879C125.52 45.4879 122.952 48.0822 122.952 51.9736C122.952 55.8649 125.52 58.4592 129.372 58.4592Z" fill="#3576F3"/>
<path fill-rule="evenodd" clip-rule="evenodd" d="M140.597 49.9651H143.456C146.479 49.9651 148.26 51.5133 148.26 54.1075C148.26 56.6599 146.438 58.2499 143.456 58.2499H137.284V45.6972H140.597V49.9651ZM140.597 55.6557H142.958C144.243 55.6557 144.905 55.1118 144.905 54.0657C144.905 53.0196 144.243 52.4757 142.958 52.4757H140.597V55.6557Z" fill="#3576F3"/>
<path d="M161.639 55.321C161.266 55.321 161.018 55.0699 161.018 54.6933V50.2999H158.906L162.053 45.6972H158.574L155.592 50.2999H153.976V41.5129H150.663V58.2499H153.976V53.3544H157.829V55.572C157.829 57.4131 158.864 58.2918 160.728 58.2918C161.308 58.2918 161.639 58.2918 162.178 58.2499V55.321H161.639Z" fill="#3576F3"/>
<path d="M172.906 45.6972L167.811 53.438V45.6972H164.58V58.2499H167.852L172.947 50.5091V58.2499H176.178V45.6972H172.906Z" fill="#3576F3"/>
<path fill-rule="evenodd" clip-rule="evenodd" d="M189.557 41.3874C189.35 43.354 187.776 44.5256 185.374 44.5256C182.971 44.5256 181.397 43.354 181.19 41.3874L183.717 41.0526C183.882 41.9732 184.545 42.4334 185.374 42.4334C186.202 42.4334 186.865 41.9732 187.03 41.0526L189.557 41.3874ZM182.805 53.438L187.9 45.6972H191.172V58.2499H187.942V50.5091L182.847 58.2499H179.575V45.6972H182.805V53.438Z" fill="#3576F3"/>
</svg>
